<mxfile host="app.diagrams.net" modified="2022-05-17T12:05:10.248Z" agent="5.0 (Windows NT 10.0; Win64; x64) AppleWebKit/537.36 (KHTML, like Gecko) Chrome/101.0.4951.54 Safari/537.36" etag="P0aEraN56T68Famg3iYY" version="17.4.0" type="github">
  <diagram id="C5RBs43oDa-KdzZeNtuy" name="Page-1">
    <mxGraphModel dx="1662" dy="754" grid="1" gridSize="10" guides="1" tooltips="1" connect="1" arrows="1" fold="1" page="1" pageScale="1" pageWidth="827" pageHeight="1169" math="0" shadow="0">
      <root>
        <mxCell id="WIyWlLk6GJQsqaUBKTNV-0" />
        <mxCell id="WIyWlLk6GJQsqaUBKTNV-1" parent="WIyWlLk6GJQsqaUBKTNV-0" />
        <mxCell id="E42j3Qnnl6zGvQWKF0u--4" value="" style="edgeStyle=orthogonalEdgeStyle;rounded=0;orthogonalLoop=1;jettySize=auto;html=1;" edge="1" parent="WIyWlLk6GJQsqaUBKTNV-1" source="E42j3Qnnl6zGvQWKF0u--0" target="E42j3Qnnl6zGvQWKF0u--1">
          <mxGeometry relative="1" as="geometry" />
        </mxCell>
        <mxCell id="E42j3Qnnl6zGvQWKF0u--0" value="Begin take_mask timer" style="rounded=1;whiteSpace=wrap;html=1;absoluteArcSize=1;arcSize=14;strokeWidth=2;" vertex="1" parent="WIyWlLk6GJQsqaUBKTNV-1">
          <mxGeometry x="40" y="130" width="100" height="60" as="geometry" />
        </mxCell>
        <mxCell id="E42j3Qnnl6zGvQWKF0u--6" value="No" style="edgeStyle=orthogonalEdgeStyle;rounded=0;orthogonalLoop=1;jettySize=auto;html=1;" edge="1" parent="WIyWlLk6GJQsqaUBKTNV-1" source="E42j3Qnnl6zGvQWKF0u--1" target="E42j3Qnnl6zGvQWKF0u--5">
          <mxGeometry relative="1" as="geometry" />
        </mxCell>
        <mxCell id="E42j3Qnnl6zGvQWKF0u--13" value="Yes" style="edgeStyle=orthogonalEdgeStyle;rounded=0;orthogonalLoop=1;jettySize=auto;html=1;" edge="1" parent="WIyWlLk6GJQsqaUBKTNV-1" source="E42j3Qnnl6zGvQWKF0u--1" target="E42j3Qnnl6zGvQWKF0u--12">
          <mxGeometry relative="1" as="geometry" />
        </mxCell>
        <mxCell id="E42j3Qnnl6zGvQWKF0u--1" value="IR2 HIGH?" style="strokeWidth=2;html=1;shape=mxgraph.flowchart.decision;whiteSpace=wrap;" vertex="1" parent="WIyWlLk6GJQsqaUBKTNV-1">
          <mxGeometry x="230" y="110" width="100" height="100" as="geometry" />
        </mxCell>
        <mxCell id="E42j3Qnnl6zGvQWKF0u--2" value="Resume state machine loop.&lt;br&gt;(See Logic Flow 1.0.)" style="verticalLabelPosition=bottom;verticalAlign=top;html=1;shape=offPageConnector;rounded=0;size=0.5;" vertex="1" parent="WIyWlLk6GJQsqaUBKTNV-1">
          <mxGeometry x="250" y="410" width="60" height="60" as="geometry" />
        </mxCell>
        <mxCell id="E42j3Qnnl6zGvQWKF0u--7" value="No" style="edgeStyle=orthogonalEdgeStyle;rounded=0;orthogonalLoop=1;jettySize=auto;html=1;exitX=0.5;exitY=0;exitDx=0;exitDy=0;exitPerimeter=0;entryX=0.5;entryY=0;entryDx=0;entryDy=0;entryPerimeter=0;" edge="1" parent="WIyWlLk6GJQsqaUBKTNV-1" source="E42j3Qnnl6zGvQWKF0u--5" target="E42j3Qnnl6zGvQWKF0u--1">
          <mxGeometry relative="1" as="geometry" />
        </mxCell>
        <mxCell id="E42j3Qnnl6zGvQWKF0u--9" value="Yes" style="edgeStyle=orthogonalEdgeStyle;rounded=0;orthogonalLoop=1;jettySize=auto;html=1;" edge="1" parent="WIyWlLk6GJQsqaUBKTNV-1" source="E42j3Qnnl6zGvQWKF0u--5" target="E42j3Qnnl6zGvQWKF0u--8">
          <mxGeometry relative="1" as="geometry" />
        </mxCell>
        <mxCell id="E42j3Qnnl6zGvQWKF0u--5" value="take_mask &lt;br&gt;&amp;gt;= &lt;br&gt;5 sec&amp;nbsp;" style="strokeWidth=2;html=1;shape=mxgraph.flowchart.decision;whiteSpace=wrap;" vertex="1" parent="WIyWlLk6GJQsqaUBKTNV-1">
          <mxGeometry x="390" y="110" width="100" height="100" as="geometry" />
        </mxCell>
        <mxCell id="E42j3Qnnl6zGvQWKF0u--11" style="edgeStyle=orthogonalEdgeStyle;rounded=0;orthogonalLoop=1;jettySize=auto;html=1;entryX=0.5;entryY=0;entryDx=0;entryDy=0;entryPerimeter=0;" edge="1" parent="WIyWlLk6GJQsqaUBKTNV-1" source="E42j3Qnnl6zGvQWKF0u--8" target="E42j3Qnnl6zGvQWKF0u--1">
          <mxGeometry relative="1" as="geometry">
            <mxPoint x="290" y="-200" as="targetPoint" />
            <Array as="points">
              <mxPoint x="630" y="60" />
              <mxPoint x="280" y="60" />
            </Array>
          </mxGeometry>
        </mxCell>
        <mxCell id="E42j3Qnnl6zGvQWKF0u--8" value="Display &quot;Err2&quot; on SSD, notify telemetry that mask is jammed at door or not taken" style="strokeWidth=2;html=1;shape=mxgraph.flowchart.display;whiteSpace=wrap;" vertex="1" parent="WIyWlLk6GJQsqaUBKTNV-1">
          <mxGeometry x="530" y="120" width="200" height="80" as="geometry" />
        </mxCell>
        <mxCell id="E42j3Qnnl6zGvQWKF0u--14" value="No" style="edgeStyle=orthogonalEdgeStyle;rounded=0;orthogonalLoop=1;jettySize=auto;html=1;" edge="1" parent="WIyWlLk6GJQsqaUBKTNV-1" source="E42j3Qnnl6zGvQWKF0u--12" target="E42j3Qnnl6zGvQWKF0u--2">
          <mxGeometry relative="1" as="geometry" />
        </mxCell>
        <mxCell id="E42j3Qnnl6zGvQWKF0u--17" value="Yes" style="edgeStyle=orthogonalEdgeStyle;rounded=0;orthogonalLoop=1;jettySize=auto;html=1;" edge="1" parent="WIyWlLk6GJQsqaUBKTNV-1" source="E42j3Qnnl6zGvQWKF0u--12" target="E42j3Qnnl6zGvQWKF0u--16">
          <mxGeometry relative="1" as="geometry" />
        </mxCell>
        <mxCell id="E42j3Qnnl6zGvQWKF0u--12" value="is Err2 &lt;br&gt;displayed?" style="strokeWidth=2;html=1;shape=mxgraph.flowchart.decision;whiteSpace=wrap;" vertex="1" parent="WIyWlLk6GJQsqaUBKTNV-1">
          <mxGeometry x="230" y="260" width="100" height="100" as="geometry" />
        </mxCell>
        <mxCell id="E42j3Qnnl6zGvQWKF0u--19" value="" style="edgeStyle=orthogonalEdgeStyle;rounded=0;orthogonalLoop=1;jettySize=auto;html=1;" edge="1" parent="WIyWlLk6GJQsqaUBKTNV-1" source="E42j3Qnnl6zGvQWKF0u--16" target="E42j3Qnnl6zGvQWKF0u--18">
          <mxGeometry relative="1" as="geometry" />
        </mxCell>
        <mxCell id="E42j3Qnnl6zGvQWKF0u--16" value="Clear error &lt;br&gt;from SSD, display stock." style="strokeWidth=2;html=1;shape=mxgraph.flowchart.display;whiteSpace=wrap;" vertex="1" parent="WIyWlLk6GJQsqaUBKTNV-1">
          <mxGeometry x="390" y="280" width="110" height="60" as="geometry" />
        </mxCell>
        <mxCell id="E42j3Qnnl6zGvQWKF0u--20" style="edgeStyle=orthogonalEdgeStyle;rounded=0;orthogonalLoop=1;jettySize=auto;html=1;entryX=1;entryY=0.25;entryDx=0;entryDy=0;" edge="1" parent="WIyWlLk6GJQsqaUBKTNV-1" target="E42j3Qnnl6zGvQWKF0u--2">
          <mxGeometry relative="1" as="geometry">
            <mxPoint x="350" y="425" as="targetPoint" />
            <mxPoint x="655" y="340" as="sourcePoint" />
            <Array as="points">
              <mxPoint x="620" y="340" />
              <mxPoint x="620" y="420" />
              <mxPoint x="350" y="420" />
              <mxPoint x="350" y="425" />
            </Array>
          </mxGeometry>
        </mxCell>
        <mxCell id="E42j3Qnnl6zGvQWKF0u--18" value="Notify telemetry &lt;br&gt;that jam is cleared" style="strokeWidth=2;html=1;shape=mxgraph.flowchart.display;whiteSpace=wrap;" vertex="1" parent="WIyWlLk6GJQsqaUBKTNV-1">
          <mxGeometry x="550" y="280" width="130" height="60" as="geometry" />
        </mxCell>
      </root>
    </mxGraphModel>
  </diagram>
</mxfile>
